<?xml version="1.0" encoding="utf-8"?><!-- Uploaded to: SVG Repo, www.svgrepo.com, Generator: SVG Repo Mixer Tools -->
<svg fill="#000000" width="800px" height="800px" viewBox="0 0 50 50" xmlns="http://www.w3.org/2000/svg" xmlns:xlink="http://www.w3.org/1999/xlink"><path d="M7.0078125 3.9980469C5.3633536 3.9980469 4.0078125 5.3524737 4.0078125 6.9980469L4.0078125 40.001953C4.0078125 41.646923 5.3628427 43.001953 7.0078125 43.001953L8 43.001953L8 45 A 1.0001 1.0001 0 0 0 9 46L13 46 A 1.0001 1.0001 0 0 0 14 45L14 43.001953L22 43C22 44.64497 23.35503 46 25 46L43 46C44.64497 46 46 44.64497 46 43L46 23C46 21.35503 44.64497 20 43 20L33 20L33 7C33 5.3549372 31.645063 4 30 4L7.0078125 3.9980469 z M 7.0078125 5.9980469L30 6C30.562937 6 31 6.4370628 31 7L31 15L6.0078125 15L6.0078125 6.9980469C6.0078125 6.43362 6.4442714 5.9980469 7.0078125 5.9980469 z M 9.984375 7.9863281 A 1.0001 1.0001 0 0 0 9 9L9 12 A 1.0001 1.0001 0 1 0 11 12L11 9 A 1.0001 1.0001 0 0 0 9.984375 7.9863281 z M 6.0078125 17L31 17L31 20L25 20C23.35503 20 22 21.35503 22 23L22 41L13.070312 41.001953 A 1.0001 1.0001 0 0 0 13.042969 41.001953 A 1.0001 1.0001 0 0 0 13 41L9 41 A 1.0001 1.0001 0 0 0 8.9707031 41.001953L7.0078125 41.001953C6.4427823 41.001953 6.0078125 40.566983 6.0078125 40.001953L6.0078125 17 z M 9.984375 18.986328 A 1.0001 1.0001 0 0 0 9 20L9 24 A 1.0001 1.0001 0 1 0 11 24L11 20 A 1.0001 1.0001 0 0 0 9.984375 18.986328 z M 25 22L43 22C43.56503 22 44 22.43497 44 23L44 43C44 43.56503 43.56503 44 43 44L25 44C24.43497 44 24 43.56503 24 43L24 23C24 22.43497 24.43497 22 25 22 z M 37 24 A 1 1 0 0 0 37 26 A 1 1 0 0 0 37 24 z M 41 24 A 1 1 0 0 0 41 26 A 1 1 0 0 0 41 24 z M 34 28C32.083334 28 30.518559 28.754756 29.501953 29.898438C28.485347 31.042119 28 32.527778 28 34C28 35.472222 28.485347 36.957881 29.501953 38.101562C30.518559 39.245244 32.083334 40 34 40C35.916666 40 37.481441 39.245244 38.498047 38.101562C39.514653 36.957881 40 35.472222 40 34C40 32.527778 39.514653 31.042119 38.498047 29.898438C37.481441 28.754756 35.916666 28 34 28 z M 34 30C35.416666 30 36.351893 30.495244 37.001953 31.226562C37.652013 31.957881 38 32.972222 38 34C38 35.027778 37.652013 36.042119 37.001953 36.773438C36.351893 37.504756 35.416666 38 34 38C32.583334 38 31.648107 37.504756 30.998047 36.773438C30.347987 36.042119 30 35.027778 30 34C30 32.972222 30.347987 31.957881 30.998047 31.226562C31.648107 30.495244 32.583334 30 34 30 z M 10 43.001953L12 43.001953L12 44L10 44L10 43.001953 z"/></svg>