<?xml version="1.0" encoding="utf-8"?><!-- Uploaded to: SVG Repo, www.svgrepo.com, Generator: SVG Repo Mixer Tools -->
<svg fill="#000000" width="800px" height="800px" viewBox="0 -1.05 48.095 48.095" xmlns="http://www.w3.org/2000/svg" xmlns:xlink="http://www.w3.org/1999/xlink" data-name="Слой 1"><path d="M9 0 A 1.0001 1.0001 0 0 0 8 1L8 4.484375L1.4179688 9.1855469 A 1.0001 1.0001 0 0 0 1 10L1 14 A 1.0001 1.0001 0 0 0 2 15L24 15 A 1.0001 1.0001 0 0 0 25 14L25 10 A 1.0001 1.0001 0 0 0 24.582031 9.1855469L18 4.4863281L18 1 A 1.0001 1.0001 0 0 0 17 0L9 0 z M 10 2L16 2L16 5 A 1.0001 1.0001 0 0 0 16.417969 5.8144531L23 10.513672L23 13L3 13L3 10.513672L9.5820312 5.8144531 A 1.0001 1.0001 0 0 0 10 5L10 2 z M 5.5 21C4.8457598 21 4.2978026 21.418077 4.0917969 22L1 22 A 1.0001 1.0001 0 0 0 0 23L0 45 A 1.0001 1.0001 0 0 0 1 46L47.095703 46 A 1.0001 1.0001 0 0 0 48.095703 45L48.095703 23 A 1.0001 1.0001 0 0 0 47.095703 22L21.908203 22C21.702197 21.418077 21.15424 21 20.5 21L5.5 21 z M 2 24L5.5 24L20.5 24L24.095703 24L24.095703 44L2 44L2 24 z M 26.095703 24L46.095703 24L46.095703 30L26.095703 30L26.095703 24 z M 5 26 A 1.0001 1.0001 0 0 0 4 27L4 41 A 1.0001 1.0001 0 0 0 5 42L21 42 A 1.0001 1.0001 0 0 0 22 41L22 27 A 1.0001 1.0001 0 0 0 21 26L5 26 z M 30 26 A 1.0001 1.0001 0 1 0 30 28L42 28 A 1.0001 1.0001 0 1 0 42 26L30 26 z M 6 28L20 28L20 40L6 40L6 28 z M 26.095703 32L46.095703 32L46.095703 44L26.095703 44L26.095703 32 z M 29.984375 34.986328 A 1.0001 1.0001 0 0 0 29 36L29 41 A 1.0001 1.0001 0 1 0 31 41L31 36 A 1.0001 1.0001 0 0 0 29.984375 34.986328 z"/></svg>