<svg xmlns="http://www.w3.org/2000/svg" xmlns:xlink="http://www.w3.org/1999/xlink" width="240.796" height="192.164" viewBox="0 0 240.796 192.164">
  <defs>
    <linearGradient id="linear-gradient" x1="0.5" y1="1" x2="0.5" gradientUnits="objectBoundingBox">
      <stop offset="0" stop-color="gray" stop-opacity="0.251"/>
      <stop offset="0.54" stop-color="gray" stop-opacity="0.122"/>
      <stop offset="1" stop-color="gray" stop-opacity="0.102"/>
    </linearGradient>
  </defs>
  <g id="register" transform="translate(0 -0.01)">
    <path id="Path_2979" data-name="Path 2979" d="M209.079,58.915c7.419-6.612,19.068-7.954,29.669-7.434,33.3,1.656,63.361,17.731,89.362,35.914,9.412,6.583,18.68,13.676,24.791,22.742,12.438,18.456,8.75,44.021-8.547,59.223-5.884,5.173-13.016,9.138-20.341,12.654-13.016,6.25-27.071,11.266-41.849,12.7-10.541,1.017-21.211.19-31.687-1.232-29.276-3.967-58.005-12.753-82.087-27.765-10.562-6.588-20.519-14.776-24.873-25.434s-1.567-24.152,9.229-30.467c4.462-2.608,9.8-3.787,15.017-4.893,7.687-1.629,15.5-3.235,22.431-6.544,7.164-3.42,15.648-10.034,14.221-17.6C202.882,72.651,201.677,65.51,209.079,58.915Z" transform="translate(-131.656 -51.37)" fill="#6c63ff" opacity="0.1"/>
    <circle id="Ellipse_97" data-name="Ellipse 97" cx="7.593" cy="7.593" r="7.593" transform="translate(34.367 23.605)" fill="#6c63ff" opacity="0.1"/>
    <circle id="Ellipse_98" data-name="Ellipse 98" cx="4.7" cy="4.7" r="4.7" transform="translate(21.353 8.42)" fill="#6c63ff" opacity="0.1"/>
    <circle id="Ellipse_99" data-name="Ellipse 99" cx="2.892" cy="2.892" r="2.892" transform="translate(220.204 24.69)" fill="#6c63ff" opacity="0.1"/>
    <ellipse id="Ellipse_100" data-name="Ellipse 100" cx="20.305" cy="2.025" rx="20.305" ry="2.025" transform="translate(145.991 188.125)" fill="#6c63ff" opacity="0.1"/>
    <path id="Path_2980" data-name="Path 2980" d="M125.96,487.31l-.089,4.809-.713,38.978-6.108,14.3L98,545.641V489.525l21.968-1.74Z" transform="translate(-74.378 -369.843)" fill="#5f5d7e"/>
    <path id="Path_2981" data-name="Path 2981" d="M125.96,487.31l-.089,4.809-.713,38.978-6.108,14.3L98,545.641V489.525l21.968-1.74Z" transform="translate(-74.378 -369.843)" opacity="0.1"/>
    <path id="Path_2982" data-name="Path 2982" d="M192.241,487.31l-.089,4.809-.713,38.978-6.108,14.3,1.608-53.19,0-.034-.685-4.392Z" transform="translate(-140.659 -369.843)" fill="#5f5d7e"/>
    <path id="Path_2983" data-name="Path 2983" d="M119.968,487.785l5.992-.475-.089,4.809-5.218.058L98,492.43v-2.9Z" transform="translate(-74.378 -369.843)" opacity="0.1"/>
    <path id="Path_2984" data-name="Path 2984" d="M921.836,486.36v55.793h-4.9l-19.606-14.3V484.786l17.516-1.646,1.075.494,1.015.468Z" transform="translate(-681.04 -366.678)" fill="#5f5d7e"/>
    <rect id="Rectangle_117" data-name="Rectangle 117" width="4.9" height="58.519" transform="translate(235.895 116.956)" opacity="0.1"/>
    <path id="Path_2985" data-name="Path 2985" d="M921.836,483.634v3.208l-4.9.055-19.606.217v-2.328l17.516-1.646,1.075.494,1.015.468v-.468Z" transform="translate(-681.04 -366.678)" opacity="0.1"/>
    <path id="Path_2986" data-name="Path 2986" d="M240.8,463.22v4.546L0,470.451v-5.785l22.657-4.58,197.168-1.446Z" transform="translate(0 -348.083)" fill="#5f5d7e"/>
    <path id="Path_2987" data-name="Path 2987" d="M240.8,477.64v4.546L0,484.871v-5.785Z" transform="translate(0 -362.504)" opacity="0.1"/>
    <rect id="Rectangle_118" data-name="Rectangle 118" width="84.344" height="65.487" rx="22.82" transform="translate(88.099 47.002)" fill="#474157"/>
    <rect id="Rectangle_119" data-name="Rectangle 119" width="70.894" height="53.421" transform="translate(94.887 52.91)" fill="#ededf4"/>
    <circle id="Ellipse_101" data-name="Ellipse 101" cx="1.162" cy="1.162" r="1.162" transform="translate(90.958 78.458)" fill="#e6e8ec"/>
    <circle id="Ellipse_102" data-name="Ellipse 102" cx="1.916" cy="1.916" r="1.916" transform="translate(167.005 77.829)" fill="#e6e8ec"/>
    <path id="Path_2988" data-name="Path 2988" d="M613.943,345.217l-9.065-5.51a1.239,1.239,0,0,0-1.839,1.08V351.5a1.239,1.239,0,0,0,1.839,1.08l9.065-5.2a1.241,1.241,0,0,0,0-2.165Zm6.817.928a12.775,12.775,0,1,0-12.775,12.775A12.775,12.775,0,0,0,620.76,346.145Zm-23.077,0a10.3,10.3,0,1,1,10.3,10.3,10.3,10.3,0,0,1-10.3-10.3Z" transform="translate(-475.967 -265.39)" fill="#6c63ff"/>
    <path id="Path_2989" data-name="Path 2989" d="M713.506,384.98a3.011,3.011,0,0,0-.272-.848c.183-.624.3-1.008.3-1.008a1.407,1.407,0,0,0-.029-.241,3.7,3.7,0,0,0-3.748-3.1c-1.446.026-4.189.123-7.231.465.174-1.217.381-2.673.6-4.172l.4.043a1.905,1.905,0,0,1,.284.014h.128a1.311,1.311,0,0,0,.882-.27.521.521,0,0,0-.161-.853,2.15,2.15,0,0,0,1.887-.791,1.687,1.687,0,0,0,0-1.962c-.509-.723-1.586-1.205-1.644-2.056a2.512,2.512,0,0,1,.545-1.343,5.609,5.609,0,0,0-.885-6.737,13.2,13.2,0,0,0-1.07-.952,18,18,0,0,0-1.249-3.743c-.212-.07-.576-.528-.923-.921a4.437,4.437,0,0,0-.017-1c-.255-1.687-1.928-2.892-2.849-4.382a7.565,7.565,0,0,1-.851-5.021,35.919,35.919,0,0,1,1.316-5.023,6.4,6.4,0,0,0,.258-3.777,6.867,6.867,0,0,0-1.555-2.343,17.709,17.709,0,0,0-5.525-4.339,10.979,10.979,0,0,0-4.891-1.046h-.017l-.265.014-.188.012-.188.019-.2.019h0c-.2.027-.407.058-.61.1a21.043,21.043,0,0,0-4.471-.5h-.2a2.29,2.29,0,0,0-1.278.3c-.535.374-.6,1.044-.764,1.627a4.515,4.515,0,0,1-1.735,2.41c-.576.415-1.253.723-1.8,1.157a1.837,1.837,0,0,0-.832,1.726,1.884,1.884,0,0,0,1.205,1.181c-.07.087-.142.171-.21.26.113.046.241.087.345.121.723.215,1.5.241,2.234.436a4.888,4.888,0,0,1,.593.2,8.465,8.465,0,0,0-.991,3.982,8.579,8.579,0,0,0,4.488,7.525v.241c.075,2.516-.116,5.578-1.4,6.1s-2.519,1.1-3.278,1.482l-.241.128c-.2-.092-.4-.188-.6-.289,0,0-1.024-.121-.846.66,0,0-3.1-.482-4.8.841a44.171,44.171,0,0,0-5.035,4.806c-.547.721-4.777,2.3-4.777,2.3a5.424,5.424,0,0,0,.757-4.146,12.106,12.106,0,0,1-.333-3.857c.3-1.1,1.092-5.2,1.092-5.2s.111-4.324-2.249-6.308-4-3.616-3.09-1.687a26.881,26.881,0,0,0,1.335,2.582s-5.643,1.34-3.64,3.432,2.548,2.095,2.548,2.095-.668,5.165-.791,6.127-1.205,8.289-1.205,8.289-.06,3.485.547,4.025a2.742,2.742,0,0,0,2.912,2.169s4.792-.121,6.127-.66,5.944-3.425,6.431-3.244a.277.277,0,0,1,.094.063.688.688,0,0,1,.072.072c-.482,1.068-1.625,4.693-1.138,6.474,0,0-.424,5.045,2.124,6.667,0,0,3.7,6.248,2.3,9.61-.111.272-.21.523-.3.767-2.119-1.757-5.351-3.375-10.287-4.269-.5-.092-1.005-.2-1.5-.323-1.4-.34-5.262-.651-7.1,5.45a26.844,26.844,0,0,1-1.629,4.127,13.626,13.626,0,0,0-1.543,5.64c-.041,2.917,1.466,5.807,6.932,6.867a20.8,20.8,0,0,0,1.051,6.612c1.516,3.784,3.943,9.911,3.943,9.911s2.912,6.248,3.095,8.769a40.25,40.25,0,0,1,.171,5.3,2.353,2.353,0,0,1-.024.265,6.389,6.389,0,0,1-.815.74,6.531,6.531,0,0,0-1.82,2.1,6.412,6.412,0,0,0,.092,1.027,2.53,2.53,0,0,0-1.022,1.832c0,3.259,9.249,5.9,20.657,5.9S705.8,451,705.8,447.748c0-2.974-7.713-5.433-17.735-5.838a18.841,18.841,0,0,0,4.715-2.41,1.128,1.128,0,0,0,.364-.5l-1.94-4.5s-.152.034-.376.1l-.135-.2c-.863-1.314-2.524-3.931-2.524-4.642,0-.263-.439-1.943-1.075-4.245V418.12c6.33.964,14.486-.347,14.486-.347l.036-.019h.159v-.087c1.1-.607,6.583-3.82,8.21-8.082.482-1.244-.118-3.025-1.311-4.929.834-2.071,2.892-7.419,2.688-9.552,0-.113-.014-.241-.014-.366a6.284,6.284,0,0,0,.024-.656,50.816,50.816,0,0,1,2.169-8.858S713.53,385.124,713.506,384.98ZM672.53,371.057c.439.771.909,1.757,1.094,2.157h0s-.641-1.181-1.082-2.157Zm.458,67.514-.046.017v-.241a14.319,14.319,0,0,1,.046-1.885,2.207,2.207,0,0,0-.207-.979,23.139,23.139,0,0,1-1.478-5.816,29.174,29.174,0,0,1-.316-4.977,88.132,88.132,0,0,0,.109-11.006l3.731.839,4.339,8.846a32.91,32.91,0,0,1,3.657,7.728v3.413a8.34,8.34,0,0,1-1.3,2.83c-.576.788-1.138,1.586-1.658,2.41-.159.255-.335.518-.511.764-.058,0-2.909.166-3.394.7a3.24,3.24,0,0,0-.906,1.374l-.123.019A28.769,28.769,0,0,0,673,438.572Z" transform="translate(-519.741 -262.251)" fill="url(#linear-gradient)"/>
    <path id="Path_2990" data-name="Path 2990" d="M771.005,767.587l-.964,3.133-4.1,3.555-6.026,1.731s-2.832-1.55-1.868-1.851a2.378,2.378,0,0,0,.909-.791c-.337,1.229,2.345-.354,2.345-.354s6.93-4.941,7.653-5.484a5.449,5.449,0,0,1,1.543-.706C770.8,767.29,771.005,767.587,771.005,767.587Z" transform="translate(-599.404 -594.363)" opacity="0.1"/>
    <path id="Path_2991" data-name="Path 2991" d="M750.385,682.56l-.964,3.133-4.1,3.555-6.026,1.731s-2.832-1.55-1.868-1.851a2.378,2.378,0,0,0,.909-.791,12.039,12.039,0,0,0,.805-1.162c.516-.829,1.075-1.629,1.646-2.41a8.678,8.678,0,0,0,1.521-4c.422-3.314-3.857-10-3.857-10L730.68,654.79l10.847,1.326s5.845,20.066,5.845,21.03c0,.723,1.649,3.338,2.507,4.657C750.18,682.263,750.385,682.56,750.385,682.56Z" transform="translate(-578.783 -509.336)" fill="#fdc2cc"/>
    <ellipse id="Ellipse_103" data-name="Ellipse 103" cx="20.517" cy="5.917" rx="20.517" ry="5.917" transform="translate(145.068 179.942)" fill="#5f5d7e"/>
    <path id="Path_2992" data-name="Path 2992" d="M763.867,771.769a1.156,1.156,0,0,1-.362.5c-1.49,1.367-7.06,3.4-10.5,4.5a24.345,24.345,0,0,1-2.755.783,8.169,8.169,0,0,1-3.8-1.222c-1.205-.74-.121-1.791.366-2.333s3.375-.7,3.375-.7c-1.386,2.307,2.046.282,2.046.282s6.93-4.941,7.653-5.484a6.65,6.65,0,0,1,2.049-.844Z" transform="translate(-590.337 -594.689)" fill="#6c63ff"/>
    <path id="Path_2993" data-name="Path 2993" d="M763.867,771.769a1.156,1.156,0,0,1-.362.5c-1.49,1.367-7.06,3.4-10.5,4.5a24.345,24.345,0,0,1-2.755.783,8.169,8.169,0,0,1-3.8-1.222c-1.205-.74-.121-1.791.366-2.333s3.375-.7,3.375-.7c-1.386,2.307,2.046.282,2.046.282s6.93-4.941,7.653-5.484a6.65,6.65,0,0,1,2.049-.844Z" transform="translate(-590.337 -594.689)" opacity="0.3"/>
    <path id="Path_2994" data-name="Path 2994" d="M785.862,788.09c-1.49,1.367-7.06,3.4-10.5,4.5C778.479,789.951,783.709,788.57,785.862,788.09Z" transform="translate(-612.694 -610.506)" opacity="0.1"/>
    <ellipse id="Ellipse_104" data-name="Ellipse 104" cx="4.105" cy="1.183" rx="4.105" ry="1.183" transform="translate(161.48 182.769)" opacity="0.1"/>
    <rect id="Rectangle_120" data-name="Rectangle 120" width="4.218" height="31.214" transform="translate(163.302 152.738)" fill="#5f5d7e"/>
    <path id="Path_2995" data-name="Path 2995" d="M782.218,686.55v3.616a29.67,29.67,0,0,1-4.218-2.22V685h.88Z" transform="translate(-614.698 -532.264)" opacity="0.1"/>
    <path id="Path_2996" data-name="Path 2996" d="M754.27,607.732s13.927-3.584,17.393-6.267,17.077,9.94,15.279,14.7-8.345,8.212-8.345,8.212-18.1,2.945-21.187-3.2A34.79,34.79,0,0,1,754.27,607.732Z" transform="translate(-596.687 -468.583)" fill="#474157"/>
    <path id="Path_2997" data-name="Path 2997" d="M754.27,607.732s13.927-3.584,17.393-6.267,17.077,9.94,15.279,14.7-8.345,8.212-8.345,8.212-18.1,2.945-21.187-3.2A34.79,34.79,0,0,1,754.27,607.732Z" transform="translate(-596.687 -468.583)" opacity="0.1"/>
    <path id="Path_2998" data-name="Path 2998" d="M749.27,601.732s13.927-3.584,17.393-6.267,17.078,9.94,15.279,14.7-8.345,8.212-8.345,8.212-18.1,2.945-21.187-3.2A34.792,34.792,0,0,1,749.27,601.732Z" transform="translate(-592.893 -464.03)" fill="#474157"/>
    <path id="Path_2999" data-name="Path 2999" d="M670.428,414.849l-1.506-.547a5.479,5.479,0,0,0,.754-4.158,12.3,12.3,0,0,1-.333-3.881c.3-1.118,1.085-5.218,1.085-5.218s.111-4.339-2.234-6.327-3.972-3.616-3.068-1.687a26.875,26.875,0,0,0,1.326,2.591s-5.6,1.343-3.616,3.444,2.531,2.1,2.531,2.1-.663,5.182-.783,6.146-1.205,8.316-1.205,8.316-.06,3.5.542,4.037a2.726,2.726,0,0,0,2.892,2.169C667.242,421.827,672.357,416.175,670.428,414.849Z" transform="translate(-526.968 -310.014)" fill="#fdc2cc"/>
    <path id="Path_3000" data-name="Path 3000" d="M775.717,409.616v3.375l-3.495,1.14-5.954,4.382-1.579,1.162-7.05-2.832-4.459-4.7s.217-.118.593-.313l.241-.128c.754-.378,1.943-.964,3.256-1.487s1.468-3.589,1.393-6.115v-.241c-.06-1.772-.241-3.22-.241-3.22s.735-.14,1.805-.3c2.967-.441,8.5-1.036,8.017.781a4.185,4.185,0,0,0,0,1.878c.014.068.029.137.046.2a15.9,15.9,0,0,0,2.054,4.486l4.821,1.735.135.048Z" transform="translate(-595.86 -315.869)" fill="#fdc2cc"/>
    <path id="Path_3001" data-name="Path 3001" d="M837.383,441.14v-1.024a3.375,3.375,0,0,1,1.145,0c.422.121,1.222,1.386,1.584,1.506s2.574,8.376,2.333,9.1-2.519,17.049-2.519,17.049l-4.592,5.062-.9-13.92,2.953-8.256Z" transform="translate(-657.526 -346.369)" fill="#fdc2cc"/>
    <path id="Path_3002" data-name="Path 3002" d="M736.247,601.77s-4.2.9-3.664,2.23,2.88,1.386,2.88,1.386Z" transform="translate(-580.192 -469.096)" fill="#fdc2cc"/>
    <path id="Path_3003" data-name="Path 3003" d="M702.735,460.3l-3.194,6.882-3.8,2.772-.663-4.283a18.774,18.774,0,0,0-1.834-3.312.277.277,0,0,0-.094-.063c-.482-.181-5.062,2.712-6.388,3.254s-6.086.663-6.086.663l2.109-7.532s4.218-1.567,4.76-2.29a43.86,43.86,0,0,1,5-4.821c1.687-1.326,4.765-.844,4.765-.844l.048.019.791.342,2.29,5.6Z" transform="translate(-540.835 -354.398)" fill="#fdc2cc"/>
    <path id="Path_3004" data-name="Path 3004" d="M696.177,655.035a14.392,14.392,0,0,0-.046,1.89c.017.672.046,1.244.046,1.244l-1.386,2.892s-4.76,1.567-3.977.9a2.618,2.618,0,0,0,.482-1.613,40.9,40.9,0,0,0-.171-5.317c-.181-2.531-3.073-8.8-3.073-8.8s-2.41-6.146-3.917-9.943-.964-10.666-.964-10.666.241-5.182,1.326-6.749,5.3-2.109,5.3-2.109l1.979,6.563s1.627,6.146,2.23,7.05.422,11.69.181,12.835a30.694,30.694,0,0,0,.316,4.994,23.457,23.457,0,0,0,1.466,5.833A2.227,2.227,0,0,1,696.177,655.035Z" transform="translate(-542.654 -480.48)" fill="#fdc2cc"/>
    <path id="Path_3005" data-name="Path 3005" d="M720.269,784.6l-1.386,2.892s-4.76,1.567-3.977.9a2.617,2.617,0,0,0,.482-1.613c.171-.171.354-.359.542-.552a12.171,12.171,0,0,1,4.3-2.876h0C720.24,784.032,720.269,784.6,720.269,784.6Z" transform="translate(-566.745 -606.916)" opacity="0.1"/>
    <path id="Path_3006" data-name="Path 3006" d="M715.9,789.6a.142.142,0,0,1,0,.034c-.241,1.145-4.218,2.712-4.218,2.712s-2.531.422-3.977.783a1,1,0,0,1-.34.031c-1.116-.084-1.167-2.232-1.167-2.562a6.849,6.849,0,0,1,1.808-2.109,12.924,12.924,0,0,0,1.34-1.285,12.436,12.436,0,0,1,4.392-2.933h0S716.095,788.411,715.9,789.6Z" transform="translate(-560.204 -607.607)" fill="#6c63ff"/>
    <path id="Path_3007" data-name="Path 3007" d="M715.9,789.584a.141.141,0,0,1,0,.034c-.241,1.145-4.218,2.712-4.218,2.712s-2.531.422-3.977.783a1,1,0,0,1-.34.031c-1.116-.084-1.167-2.232-1.167-2.562a6.851,6.851,0,0,1,1.808-2.109,12.78,12.78,0,0,0,1.359-1.3,12.188,12.188,0,0,1,4.3-2.893l.068-.026S716.095,788.4,715.9,789.584Z" transform="translate(-560.204 -607.591)" opacity="0.3"/>
    <path id="Path_3008" data-name="Path 3008" d="M719.575,806.253a.142.142,0,0,1,0,.034c-.241,1.145-4.218,2.712-4.218,2.712s-2.531.422-3.977.783a1,1,0,0,1-.34.031,44.327,44.327,0,0,1,4.92-3.1A13.4,13.4,0,0,1,719.575,806.253Z" transform="translate(-563.877 -624.26)" opacity="0.1"/>
    <path id="Path_3009" data-name="Path 3009" d="M784.83,403.2c-1.49,1.227-2.859,1.051-4.939,1.051-1.5,0-3.459.528-4.691-.149-.051-1.883-.241-3.466-.241-3.466s10.485-1.989,9.822.482a4.383,4.383,0,0,0,.048,2.083Z" transform="translate(-612.39 -315.87)" opacity="0.1"/>
    <path id="Path_3010" data-name="Path 3010" d="M774.671,357.931a8.617,8.617,0,0,1-8.617,8.617,6.011,6.011,0,0,1-.66-.024h0a8.617,8.617,0,1,1,9.28-8.593Z" transform="translate(-599.093 -277.492)" fill="#fdc2cc"/>
    <path id="Path_3011" data-name="Path 3011" d="M740.017,457.031l2.29,3.616-3.194,6.882-3.8,2.772-.663-4.3a18.774,18.774,0,0,0-1.834-3.312c.159-.388.268-.566.268-.424a17.675,17.675,0,0,0,1.482,3.314c4.58-1.567,3.158-7.653,3.158-7.653s-.569-5.423-.791-6.85l.791.342Z" transform="translate(-580.408 -354.728)" opacity="0.1"/>
    <path id="Path_3012" data-name="Path 3012" d="M775.717,439.815v3.375l-3.495,1.14-5.954,4.382-1.579,1.162-7.05-2.832-4.459-4.7s.217-.118.593-.313l.241-.128a29.431,29.431,0,0,0,12.175,2.189c9.08-1.446,9.35-3.64,9.123-4.418Z" transform="translate(-595.86 -346.068)" opacity="0.1"/>
    <path id="Path_3013" data-name="Path 3013" d="M727.633,494.306a67.566,67.566,0,0,1-6.99,2.953c-4.158,1.506-13.317-.482-14.462-.783s-9.943-3.8-13.317-5.122-4.218-.241-5-.362-1.326-1.627-1.446-2.049,2.169-4.1,3.435-5.966,5.062-1.506,5.6-1.627,4.339,0,4.339,0-.241-1.205,1.145-4.58-2.29-9.641-2.29-9.641c-2.531-1.627-2.109-6.689-2.109-6.689-.6-2.23,1.326-7.352,1.326-6.749a17.677,17.677,0,0,0,1.482,3.314c4.58-1.567,3.158-7.653,3.158-7.653s-.663-6.327-.839-7.111.839-.663.839-.663q.294.152.593.289a29.3,29.3,0,0,0,12.423,2.3c11.008-1.776,9.058-4.609,8.986-4.71l.535.19c3.977,2.892,2.772,12.474,2.772,12.474l-1.49,7.152-1.106,5.327s3.917,23.742,4.278,24.947S727.633,494.306,727.633,494.306Z" transform="translate(-545.185 -345.909)" fill="#6c63ff"/>
    <path id="Path_3014" data-name="Path 3014" d="M730.364,622c-.241.181-2.953,5.785-.964,7.352S730.364,622,730.364,622Z" transform="translate(-577.262 -484.45)" opacity="0.1"/>
    <path id="Path_3015" data-name="Path 3015" d="M743.68,625.27c.06.181,5.664,9.1,8.738,9.822Z" transform="translate(-588.65 -486.931)" opacity="0.1"/>
    <path id="Path_3016" data-name="Path 3016" d="M796.867,332.374l-.9.19a6.047,6.047,0,0,1,.757-.224Z" transform="translate(-628.336 -264.608)" opacity="0.1"/>
    <path id="Path_3017" data-name="Path 3017" d="M774.281,383.711l-1.687,7.147a8.731,8.731,0,0,1-2.343-1.569,7.137,7.137,0,0,0-1.711-1.432,7.427,7.427,0,0,0-2.972-.41,14.3,14.3,0,0,1-3.717-.636,2.622,2.622,0,0,1-.964-.468,2.343,2.343,0,0,1-.482-2.037,31.238,31.238,0,0,0,.036-4.168c-.014-.26-.034-.521-.055-.781-.1-1.164-.41-2.514-1.6-3.013-.612-.241-1.343-.222-1.928-.513a1.594,1.594,0,0,1-.241-.149c-.868-.607-.947-1.825-.914-2.849q.077-2.111.147-4.225a12.282,12.282,0,0,0-.046-2.085h0a4.633,4.633,0,0,0-.376-1.331c-.523-1.118-1.613-2.051-1.808-3.232a1.315,1.315,0,0,1-.022-.166c-.1-1.056.564-2.039.8-3.078a4.46,4.46,0,0,0-3.415-4.98c-.723-.188-1.5-.224-2.22-.439a3.564,3.564,0,0,1-.34-.121,10.118,10.118,0,0,1,8.133-3.857c5.382,0,9.748,3.857,9.748,8.617a8.27,8.27,0,0,1-3.6,6.689c.014.067.031.137.051.2a15.162,15.162,0,0,0,2.324,4.486l5.457,1.735.607.193C775.645,374.135,774.281,383.711,774.281,383.711Z" transform="translate(-592.247 -277.496)" opacity="0.1"/>
    <path id="Path_3018" data-name="Path 3018" d="M867.514,520.646a.82.82,0,0,1-.154-.022A.32.32,0,0,1,867.514,520.646Z" transform="translate(-682.518 -407.508)" opacity="0.1"/>
    <path id="Path_3019" data-name="Path 3019" d="M755.5,329.8a20.727,20.727,0,0,0-4.6-.538,2.546,2.546,0,0,0-1.446.3c-.533.374-.6,1.048-.759,1.632a4.527,4.527,0,0,1-1.723,2.41c-.571.417-1.244.723-1.791,1.162a1.868,1.868,0,0,0-.827,1.731,2.14,2.14,0,0,0,1.581,1.34c.723.2,1.492.241,2.22.439a4.459,4.459,0,0,1,3.413,4.977c-.241,1.039-.9,2.022-.8,3.078.118,1.261,1.282,2.232,1.829,3.4a7.35,7.35,0,0,1,.427,3.413l-.147,4.228c-.039,1.114.058,2.454,1.157,3,.588.289,1.321.258,1.928.513,1.191.5,1.5,1.849,1.6,3.011a31.122,31.122,0,0,1,.019,4.949,2.321,2.321,0,0,0,.482,2.037,2.584,2.584,0,0,0,.964.468,14.3,14.3,0,0,0,3.717.636,7.507,7.507,0,0,1,2.972.41,7.192,7.192,0,0,1,1.711,1.432,9.458,9.458,0,0,0,5.587,2.447,1.664,1.664,0,0,0,1.263-.258c.311-.287.128-.906-.316-.87A2.143,2.143,0,0,0,776,374.37a1.711,1.711,0,0,0,0-1.969c-.5-.723-1.574-1.205-1.632-2.063a2.546,2.546,0,0,1,.54-1.347,5.667,5.667,0,0,0-.877-6.749c-1.13-1.169-2.825-2.056-3.22-3.555-.263-1,.135-2.056-.017-3.076-.241-1.687-1.911-2.892-2.83-4.4a7.643,7.643,0,0,1-.846-5.035,35.81,35.81,0,0,1,1.309-5.038,6.5,6.5,0,0,0,.255-3.792,6.946,6.946,0,0,0-1.545-2.35,17.4,17.4,0,0,0-5.486-4.339,10.031,10.031,0,0,0-7.164-.66" transform="translate(-589.144 -262.271)" fill="#474157"/>
    <path id="Path_3020" data-name="Path 3020" d="M755.5,329.8a20.727,20.727,0,0,0-4.6-.538,2.546,2.546,0,0,0-1.446.3c-.533.374-.6,1.048-.759,1.632a4.527,4.527,0,0,1-1.723,2.41c-.571.417-1.244.723-1.791,1.162a1.868,1.868,0,0,0-.827,1.731,2.14,2.14,0,0,0,1.581,1.34c.723.2,1.492.241,2.22.439a4.459,4.459,0,0,1,3.413,4.977c-.241,1.039-.9,2.022-.8,3.078.118,1.261,1.282,2.232,1.829,3.4a7.35,7.35,0,0,1,.427,3.413l-.147,4.228c-.039,1.114.058,2.454,1.157,3,.588.289,1.321.258,1.928.513,1.191.5,1.5,1.849,1.6,3.011a31.122,31.122,0,0,1,.019,4.949,2.321,2.321,0,0,0,.482,2.037,2.584,2.584,0,0,0,.964.468,14.3,14.3,0,0,0,3.717.636,7.507,7.507,0,0,1,2.972.41,7.192,7.192,0,0,1,1.711,1.432,9.458,9.458,0,0,0,5.587,2.447,1.664,1.664,0,0,0,1.263-.258c.311-.287.128-.906-.316-.87A2.143,2.143,0,0,0,776,374.37a1.711,1.711,0,0,0,0-1.969c-.5-.723-1.574-1.205-1.632-2.063a2.546,2.546,0,0,1,.54-1.347,5.667,5.667,0,0,0-.877-6.749c-1.13-1.169-2.825-2.056-3.22-3.555-.263-1,.135-2.056-.017-3.076-.241-1.687-1.911-2.892-2.83-4.4a7.643,7.643,0,0,1-.846-5.035,35.81,35.81,0,0,1,1.309-5.038,6.5,6.5,0,0,0,.255-3.792,6.946,6.946,0,0,0-1.545-2.35,17.4,17.4,0,0,0-5.486-4.339,10.031,10.031,0,0,0-7.164-.66" transform="translate(-589.144 -262.271)" opacity="0.1"/>
    <path id="Path_3021" data-name="Path 3021" d="M737.18,547.7s2.049.783,4.218-1.386S737.18,547.7,737.18,547.7Z" transform="translate(-583.717 -426.473)" opacity="0.1"/>
    <g id="Group_212" data-name="Group 212" transform="translate(155.151 67.004)" opacity="0.1">
      <path id="Path_3022" data-name="Path 3022" d="M792.922,330.808a8.576,8.576,0,0,1,1.205-.152,9.145,9.145,0,0,0-1.687.053Z" transform="translate(-780.808 -330.321)"/>
      <path id="Path_3023" data-name="Path 3023" d="M768.38,373.873a7.207,7.207,0,0,0-1.714-1.432,7.5,7.5,0,0,0-2.972-.41,14.22,14.22,0,0,1-3.717-.636,2.585,2.585,0,0,1-.964-.468,2.349,2.349,0,0,1-.482-2.037,31.122,31.122,0,0,0-.019-4.948c-.1-1.162-.41-2.514-1.6-3.011-.61-.255-1.34-.224-1.928-.513-1.1-.545-1.205-1.885-1.159-3q.075-2.114.147-4.225a7.325,7.325,0,0,0-.427-3.415c-.547-1.169-1.711-2.138-1.829-3.4-.1-1.053.566-2.039.8-3.078a4.458,4.458,0,0,0-3.416-4.977c-.723-.188-1.5-.227-2.22-.439a2.116,2.116,0,0,1-1.569-1.326,1.835,1.835,0,0,1,.824-1.733c.547-.441,1.22-.745,1.793-1.162a4.51,4.51,0,0,0,1.721-2.41,2.7,2.7,0,0,1,.759-1.632,1.928,1.928,0,0,1,.988-.289c-.214,0-.429-.012-.641-.012a2.565,2.565,0,0,0-1.446.3c-.533.376-.6,1.049-.759,1.632a4.527,4.527,0,0,1-1.723,2.41c-.571.417-1.244.723-1.791,1.162a1.87,1.87,0,0,0-.827,1.733,2.126,2.126,0,0,0,1.572,1.326c.721.215,1.492.241,2.22.439a4.459,4.459,0,0,1,3.413,4.977c-.241,1.039-.9,2.025-.8,3.078.118,1.263,1.282,2.232,1.829,3.4a7.324,7.324,0,0,1,.427,3.415q-.075,2.111-.147,4.225c-.039,1.114.058,2.454,1.157,3,.588.289,1.321.258,1.928.513,1.191.5,1.5,1.849,1.6,3.011a31.122,31.122,0,0,1,.019,4.948,2.321,2.321,0,0,0,.482,2.037,2.585,2.585,0,0,0,.964.468,14.2,14.2,0,0,0,3.717.636,7.506,7.506,0,0,1,2.972.41,7.255,7.255,0,0,1,1.714,1.432,9.444,9.444,0,0,0,5.585,2.447,2.583,2.583,0,0,0,.807-.031A9.427,9.427,0,0,1,768.38,373.873Z" transform="translate(-744.18 -329.32)"/>
    </g>
    <path id="Path_3024" data-name="Path 3024" d="M684.158,484s-1.928,1.769-1.646,2.492S684.158,484,684.158,484Z" transform="translate(-542.204 -379.713)" opacity="0.1"/>
    <path id="Path_3025" data-name="Path 3025" d="M664.728,577.87c-1.391-.34-5.226-.653-7.05,5.467a27.064,27.064,0,0,1-1.617,4.139c-1.75,3.594-4.011,10.984,5.932,12.611l23.863,5.423s12.775,1.567,13.619.964a2.335,2.335,0,0,0,.723-1.928s-14.1,0-16.873-4.339-2.892-10.244-2.892-10.244.347-9.118-14.221-11.767C665.728,578.1,665.222,577.991,664.728,577.87Z" transform="translate(-520.985 -450.841)" fill="#474157"/>
    <path id="Path_3026" data-name="Path 3026" d="M664.728,578.04c-1.391-.34-5.226-.653-7.05,5.469a27.067,27.067,0,0,1-1.617,4.139c-1.75,3.591-4.011,10.982,5.932,12.609l23.863,5.423s12.775,1.567,13.619.964a2.335,2.335,0,0,0,.723-1.928s-14.1,0-16.873-4.339-2.892-10.244-2.892-10.244.347-9.118-14.221-11.767C665.728,578.274,665.222,578.156,664.728,578.04Z" transform="translate(-520.985 -450.97)" opacity="0.1"/>
    <path id="Path_3027" data-name="Path 3027" d="M799.532,542.671a3.685,3.685,0,0,0-3.724-3.114c-3.432.063-14,.521-18.9,3.726,0,0-3.736,2.41-4.821,2.41s-15.788,12.534,6.026,23.742c0,0,11.69,3.326,16.27-4.483,0,0,3.254-8.388,3.013-11.293s2.169-10.738,2.169-10.738S799.556,542.828,799.532,542.671Z" transform="translate(-605.767 -421.878)" fill="#474157"/>
    <path id="Path_3028" data-name="Path 3028" d="M799.532,552.184a3.614,3.614,0,0,0-3.724-2.876c-3.432.058-14,.482-18.9,3.44,0,0-3.736,2.225-4.821,2.225s-15.788,11.57,6.026,21.917c0,0,11.69,3.071,16.27-4.139,0,0,3.254-7.745,3.013-10.425s2.169-9.911,2.169-9.911S799.556,552.328,799.532,552.184Z" transform="translate(-605.767 -429.279)" opacity="0.1"/>
    <rect id="Rectangle_121" data-name="Rectangle 121" width="3.857" height="8.212" transform="translate(178.247 147.556)" fill="#5f5d7e"/>
    <ellipse id="Ellipse_105" data-name="Ellipse 105" cx="10.856" cy="0.697" rx="10.856" ry="0.697" transform="translate(30.178 112.769)" opacity="0.1"/>
    <path id="Path_3029" data-name="Path 3029" d="M261.182,404.963a4.141,4.141,0,0,0-.55,1.034c-.034.092-.067.193-.1.292a.889.889,0,0,0-.19-.065,2.733,2.733,0,0,0-.861-.075c0-.111.014-.241.017-.352.036-1.27-.113-3.042-1.326-2.292-1.162.723-.333,1.928.417,2.7l.193.188c-.685.482-.815,1.622-.928,2.806a6.549,6.549,0,0,1-1.786,3.215c-.068.075-.128.142-.188.2a2.437,2.437,0,0,0-1.94-.5c-.027-.1-.058-.212-.089-.328-.54-1.948-1.661-5.325-3.09-6.064l.188-.241c.607-.8,1.292-1.974.282-2.278s-1.1,1.024-1.046,2.017c0,.125.019.241.029.352a1.487,1.487,0,0,0-1.056.516l-.157-.183c-.82-.964-2.321-2.5-2.777-1.34-.424,1.08.9,2.48,1.829,3.293l.058.051c-.624,2.538,2.095,4.611,3.57,5.508l.19.116c-2.025,2.386-3.276,6.857-3.276,6.857l5.669,1.012s3.76-3.242,3.278-6.289h.039c3.758-.752,4.611-4.758,4.025-7.137l.068-.027a4.276,4.276,0,0,0,1.74-1.316A1.4,1.4,0,0,0,261.182,404.963Z" transform="translate(-211.037 -318.363)" fill="#6c63ff"/>
    <path id="Path_3030" data-name="Path 3030" d="M261.182,404.963a4.141,4.141,0,0,0-.55,1.034c-.034.092-.067.193-.1.292a.889.889,0,0,0-.19-.065,2.733,2.733,0,0,0-.861-.075c0-.111.014-.241.017-.352.036-1.27-.113-3.042-1.326-2.292-1.162.723-.333,1.928.417,2.7l.193.188c-.685.482-.815,1.622-.928,2.806a6.549,6.549,0,0,1-1.786,3.215c-.068.075-.128.142-.188.2a2.437,2.437,0,0,0-1.94-.5c-.027-.1-.058-.212-.089-.328-.54-1.948-1.661-5.325-3.09-6.064l.188-.241c.607-.8,1.292-1.974.282-2.278s-1.1,1.024-1.046,2.017c0,.125.019.241.029.352a1.487,1.487,0,0,0-1.056.516l-.157-.183c-.82-.964-2.321-2.5-2.777-1.34-.424,1.08.9,2.48,1.829,3.293l.058.051c-.624,2.538,2.095,4.611,3.57,5.508l.19.116c-2.025,2.386-3.276,6.857-3.276,6.857l5.669,1.012s3.76-3.242,3.278-6.289h.039c3.758-.752,4.611-4.758,4.025-7.137l.068-.027a4.276,4.276,0,0,0,1.74-1.316A1.4,1.4,0,0,0,261.182,404.963Z" transform="translate(-211.037 -318.363)" opacity="0.1"/>
    <path id="Path_3031" data-name="Path 3031" d="M251.012,409.722l-.656,1.94s-.369-.26-.834-.67c-.93-.812-2.254-2.213-1.829-3.293.456-1.159,1.957.371,2.777,1.34C250.793,409.423,251.012,409.722,251.012,409.722Z" transform="translate(-212.152 -321.488)" fill="#6c63ff"/>
    <path id="Path_3032" data-name="Path 3032" d="M265.077,405.506a9.389,9.389,0,0,1-.646.759,10.177,10.177,0,0,1-.118-1.02c-.055-.993.051-2.312,1.046-2.017S265.675,404.711,265.077,405.506Z" transform="translate(-224.819 -318.378)" fill="#6c63ff"/>
    <path id="Path_3033" data-name="Path 3033" d="M297.008,406.3c-.019.639-.082,1.147-.082,1.147a8.187,8.187,0,0,1-.827-.738c-.75-.779-1.579-1.979-.417-2.7C296.892,403.258,297.042,405.029,297.008,406.3Z" transform="translate(-248.198 -318.866)" fill="#6c63ff"/>
    <path id="Path_3034" data-name="Path 3034" d="M309.449,410.549a4.276,4.276,0,0,1-1.745,1.314,4.865,4.865,0,0,1-.583.21l-.781-1.1a7.965,7.965,0,0,1,.323-1.065,4.141,4.141,0,0,1,.55-1.034A1.4,1.4,0,0,1,309.449,410.549Z" transform="translate(-256.725 -322.279)" fill="#6c63ff"/>
    <path id="Path_3035" data-name="Path 3035" d="M256.48,414.57c.33.383.55.682.55.682l-.656,1.94s-.369-.26-.834-.67a3.8,3.8,0,0,1,.747-1.7A2.267,2.267,0,0,1,256.48,414.57Z" transform="translate(-218.17 -327.018)" opacity="0.1"/>
    <path id="Path_3036" data-name="Path 3036" d="M265.114,411.99a9.371,9.371,0,0,1-.646.759,10.176,10.176,0,0,1-.118-1.02,1.316,1.316,0,0,1,.764.26Z" transform="translate(-224.856 -324.862)" opacity="0.1"/>
    <path id="Path_3037" data-name="Path 3037" d="M261.518,420.781l-1.649.723s-.359-.174-.877-.5c-1.733-1.068-5.216-3.751-2.88-6.913s4.283,2.512,5.05,5.284C261.4,420.21,261.518,420.781,261.518,420.781Z" transform="translate(-218.01 -325.95)" fill="#6c63ff"/>
    <path id="Path_3038" data-name="Path 3038" d="M299.22,414.49a1.343,1.343,0,0,1,.909-.41c-.019.639-.082,1.147-.082,1.147A8.193,8.193,0,0,1,299.22,414.49Z" transform="translate(-251.321 -326.646)" opacity="0.1"/>
    <path id="Path_3039" data-name="Path 3039" d="M307.7,416.852a4.87,4.87,0,0,1-.583.21l-.781-1.1a7.964,7.964,0,0,1,.323-1.065A2.789,2.789,0,0,1,307.7,416.852Z" transform="translate(-256.725 -327.268)" opacity="0.1"/>
    <path id="Path_3040" data-name="Path 3040" d="M284.563,424.464l-.277.048c-5.527.841-1.822-2.14-1.822-2.14s.241-.229.586-.605a6.536,6.536,0,0,0,1.786-3.215c.174-1.791.374-3.471,2.487-2.977C289.407,416.059,289.805,423.415,284.563,424.464Z" transform="translate(-237.681 -327.714)" fill="#6c63ff"/>
    <rect id="Rectangle_122" data-name="Rectangle 122" width="10.56" height="2.777" transform="translate(36.228 110.508)" fill="#474157"/>
    <rect id="Rectangle_123" data-name="Rectangle 123" width="13.797" height="9.69" transform="translate(34.55 101.484)" fill="#474157"/>
    <rect id="Rectangle_124" data-name="Rectangle 124" width="10.56" height="2.777" transform="translate(36.127 110.508)" opacity="0.1"/>
    <rect id="Rectangle_125" data-name="Rectangle 125" width="13.797" height="9.69" transform="translate(34.507 101.486)" opacity="0.1"/>
    <rect id="Rectangle_126" data-name="Rectangle 126" width="10.56" height="2.777" transform="translate(36.922 110.508)" fill="#474157"/>
    <path id="Path_3041" data-name="Path 3041" d="M272.729,439c.241.829.357,1.4.357,1.4l-1.649.723s-.359-.174-.877-.5A4.134,4.134,0,0,1,272.729,439Z" transform="translate(-229.569 -345.559)" opacity="0.1"/>
    <path id="Path_3042" data-name="Path 3042" d="M284.563,444.237l-.277.048c-5.527.841-1.822-2.14-1.822-2.14s.241-.229.586-.605A3.64,3.64,0,0,1,284.563,444.237Z" transform="translate(-237.681 -347.487)" opacity="0.1"/>
    <path id="Path_3043" data-name="Path 3043" d="M257.76,448.45s3.095-11.088,7.436-7.665-1.767,8.677-1.767,8.677Z" transform="translate(-219.855 -346.416)" fill="#6c63ff"/>
    <circle id="Ellipse_106" data-name="Ellipse 106" cx="0.347" cy="0.347" r="0.347" transform="translate(39.12 89.536)" opacity="0.1"/>
    <circle id="Ellipse_107" data-name="Ellipse 107" cx="0.347" cy="0.347" r="0.347" transform="translate(39.091 91.158)" opacity="0.1"/>
    <circle id="Ellipse_108" data-name="Ellipse 108" cx="0.347" cy="0.347" r="0.347" transform="translate(49.159 89.854)" opacity="0.1"/>
    <circle id="Ellipse_109" data-name="Ellipse 109" cx="0.347" cy="0.347" r="0.347" transform="translate(41.058 98.158)" opacity="0.1"/>
    <circle id="Ellipse_110" data-name="Ellipse 110" cx="0.347" cy="0.347" r="0.347" transform="translate(48.436 92.546)" opacity="0.1"/>
    <circle id="Ellipse_111" data-name="Ellipse 111" cx="0.347" cy="0.347" r="0.347" transform="translate(44.85 96.133)" opacity="0.1"/>
    <circle id="Ellipse_112" data-name="Ellipse 112" cx="0.347" cy="0.347" r="0.347" transform="translate(40.306 90.23)" opacity="0.1"/>
    <circle id="Ellipse_113" data-name="Ellipse 113" cx="0.347" cy="0.347" r="0.347" transform="translate(48.205 90.898)" opacity="0.1"/>
    <circle id="Ellipse_114" data-name="Ellipse 114" cx="0.347" cy="0.347" r="0.347" transform="translate(47.019 93.588)" opacity="0.1"/>
    <circle id="Ellipse_115" data-name="Ellipse 115" cx="0.347" cy="0.347" r="0.347" transform="translate(43.372 97.897)" opacity="0.1"/>
    <circle id="Ellipse_116" data-name="Ellipse 116" cx="0.347" cy="0.347" r="0.347" transform="translate(42.62 96.191)" opacity="0.1"/>
    <circle id="Ellipse_117" data-name="Ellipse 117" cx="0.347" cy="0.347" r="0.347" transform="translate(40.827 92.344)" opacity="0.1"/>
    <rect id="Rectangle_127" data-name="Rectangle 127" width="10.56" height="1.015" transform="translate(36.922 110.508)" opacity="0.1"/>
    <rect id="Rectangle_128" data-name="Rectangle 128" width="13.797" height="9.69" transform="translate(35.244 101.484)" fill="#474157"/>
    <circle id="Ellipse_118" data-name="Ellipse 118" cx="0.347" cy="0.347" r="0.347" transform="translate(43.835 99.459)" opacity="0.1"/>
    <circle id="Ellipse_119" data-name="Ellipse 119" cx="0.347" cy="0.347" r="0.347" transform="translate(41.752 99.893)" opacity="0.1"/>
    <path id="Path_3044" data-name="Path 3044" d="M397.5,626s1.719,2.249-.793,5.643-4.58,6.267-3.751,8.378c0,0,3.794-6.306,6.882-6.392S400.894,629.794,397.5,626Z" transform="translate(-322.321 -487.485)" fill="#6c63ff"/>
    <path id="Path_3045" data-name="Path 3045" d="M397.8,626a2.77,2.77,0,0,1,.352.7c3.011,3.538,4.616,6.841,1.721,6.925-2.7.084-5.932,4.905-6.708,6.11.027.094.058.188.092.277,0,0,3.794-6.306,6.882-6.392S401.191,629.794,397.8,626Z" transform="translate(-322.618 -487.485)" opacity="0.1"/>
    <path id="Path_3046" data-name="Path 3046" d="M424.405,636.3c0,.791-.089,1.432-.2,1.432s-.2-.641-.2-1.432.111-.419.219-.419S424.405,635.51,424.405,636.3Z" transform="translate(-346.032 -494.92)" fill="#ffd037"/>
    <path id="Path_3047" data-name="Path 3047" d="M425.931,640.11c-.694.378-1.3.607-1.352.511s.468-.482,1.164-.86.419-.1.482,0S426.627,639.731,425.931,640.11Z" transform="translate(-346.461 -497.782)" fill="#ffd037"/>
    <path id="Path_3048" data-name="Path 3048" d="M362.544,626s-1.719,2.249.793,5.643,4.58,6.267,3.748,8.378c0,0-3.792-6.306-6.879-6.392S359.148,629.794,362.544,626Z" transform="translate(-296.452 -487.485)" fill="#6c63ff"/>
    <path id="Path_3049" data-name="Path 3049" d="M362.544,626a2.771,2.771,0,0,0-.352.7c-3.011,3.538-4.616,6.841-1.721,6.925,2.7.084,5.932,4.905,6.708,6.11a2.683,2.683,0,0,1-.094.277s-3.792-6.3-6.879-6.385S359.148,629.794,362.544,626Z" transform="translate(-296.452 -487.485)" opacity="0.1"/>
    <path id="Path_3050" data-name="Path 3050" d="M361.44,636.3c0,.791.089,1.432.2,1.432s.2-.641.2-1.432-.111-.419-.219-.419S361.44,635.51,361.44,636.3Z" transform="translate(-298.544 -494.92)" fill="#ffd037"/>
    <path id="Path_3051" data-name="Path 3051" d="M355.53,640.11c.694.378,1.3.607,1.352.511s-.468-.482-1.164-.86-.419-.1-.482,0S354.833,639.731,355.53,640.11Z" transform="translate(-293.73 -497.782)" fill="#ffd037"/>
    <ellipse id="Ellipse_120" data-name="Ellipse 120" cx="17.981" cy="2.76" rx="17.981" ry="2.76" transform="translate(52.652 164.224)" fill="#6c63ff" opacity="0.1"/>
    <path id="Path_3052" data-name="Path 3052" d="M373.647,668.3l-.087.7-.121.993-.048.412-.123.993-.051.415-.121.991-1.364,11.281c-.123,1.008-1.769,1.791-3.753,1.791h-7.164c-1.986,0-3.616-.783-3.751-1.791l-1.379-11.281-.121-.991-.051-.415-.123-.993-.048-.412-.121-.993-.087-.7c-.07-.569.82-1.051,1.945-1.051H371.7C372.825,667.25,373.717,667.732,373.647,668.3Z" transform="translate(-293.758 -518.793)" fill="#65617d"/>
    <path id="Path_3053" data-name="Path 3053" d="M273.346,623.15l-.121.991H255.131l-.12-.991Z" transform="translate(-193.543 -472.94)" fill="#9d9cb5"/>
    <path id="Path_3054" data-name="Path 3054" d="M273.708,628.98l-.12.993H255.833l-.123-.993Z" transform="translate(-194.074 -477.365)" fill="#9d9cb5"/>
    <path id="Path_3055" data-name="Path 3055" d="M274.081,634.81l-.121.993h-17.41l-.121-.993Z" transform="translate(-194.621 -481.79)" fill="#9d9cb5"/>
  </g>
</svg>
